<?xml version="1.0" encoding="utf-8"?>
<!-- Generator: Adobe Illustrator 22.0.0, SVG Export Plug-In . SVG Version: 6.00 Build 0)  -->
<svg version="1.1" id="图层_1" xmlns="http://www.w3.org/2000/svg" xmlns:xlink="http://www.w3.org/1999/xlink" x="0px" y="0px"
	 viewBox="0 0 14 14" style="enable-background:new 0 0 14 14;" xml:space="preserve">
<style type="text/css">
	.st0{fill:#5A5A5A;}
	.st1{fill:#CD3838;}
	.st2{fill:#3E64DC;}
	.st3{opacity:0.3;}
	.st4{opacity:0.3;fill:#CD3838;}
	.st5{fill:#606060;}
	.st6{fill:#A85DE9;}
	.st7{fill:#FFA910;}
	.st8{fill:#2FA139;}
	.st9{fill:url(#SVGID_1_);}
	.st10{fill:url(#SVGID_2_);}
	.st11{fill:url(#SVGID_3_);}
	.st12{fill:url(#SVGID_4_);}
	.st13{fill:url(#SVGID_5_);}
	.st14{fill:url(#SVGID_6_);}
	.st15{fill:url(#SVGID_7_);}
	.st16{fill:url(#SVGID_8_);}
	.st17{fill:url(#SVGID_9_);}
	.st18{fill:url(#SVGID_10_);}
	.st19{fill:url(#SVGID_11_);}
	.st20{fill:url(#SVGID_12_);}
	.st21{fill:url(#SVGID_13_);}
	.st22{fill:#FFFFFF;fill-opacity:0.3922;}
	.st23{fill:#3555A5;}
	.st24{fill:#457AFF;}
	.st25{fill:#E0E0E0;}
	.st26{fill:#FFFFFF;}
	.st27{opacity:0.4;fill:#FFFFFF;}
	.st28{opacity:0.7;fill:#FFFFFF;}
	.st29{fill:url(#SVGID_14_);}
	.st30{fill-opacity:0.1961;}
	.st31{opacity:0.7;fill:url(#SVGID_15_);enable-background:new    ;}
	.st32{fill:url(#SVGID_16_);}
	.st33{fill:#B976FF;}
	.st34{fill:#7196FF;}
	.st35{fill:#666666;}
	.st36{fill:#FF7517;}
	.st37{fill:#FFF31A;}
	.st38{fill:#80FF45;}
	.st39{fill:#48FFFF;}
	.st40{fill:#D93BFF;}
	.st41{fill:#3377FF;}
	.st42{fill:#FF4545;}
	.st43{fill:#FF2929;}
	.st44{fill:#3BBEFF;}
	.st45{fill:#0795FF;}
	.st46{fill:#FF6464;}
	.st47{fill:url(#SVGID_17_);}
	.st48{fill:url(#SVGID_18_);}
	.st49{fill:url(#SVGID_19_);}
	.st50{fill:#ABC7FF;}
	.st51{fill:#749AF7;}
	.st52{fill:#BCBCBC;}
	.st53{fill:#A0A0A0;}
	.st54{fill:none;stroke:#3E64DC;stroke-width:2;stroke-linecap:round;stroke-miterlimit:10;}
	.st55{fill:none;stroke:#2FA139;stroke-width:2;stroke-linecap:round;stroke-miterlimit:10;}
	.st56{fill:#739BFF;}
	.st57{fill:#2850B2;}
	.st58{fill:#D3D3D3;}
	.st59{fill:#2A2F9B;}
	.st60{fill:#7F7F7F;fill-opacity:0.3922;}
	.st61{fill:#FFFFFF;fill-opacity:0.2941;}
	.st62{fill:#FFFFFF;fill-opacity:0.7059;}
	.st63{fill:#FF8500;}
	.st64{fill:#FFFFFF;fill-opacity:0.5882;}
	.st65{fill:#45D7FF;}
	.st66{fill:#8045FF;}
	.st67{fill:#FF4596;}
	.st68{fill:#45FFA2;}
	.st69{fill:#FFE345;}
	.st70{fill-opacity:0.2941;}
	.st71{fill:#F7F5CF;}
	.st72{fill:#B3B3B3;}
	.st73{fill:#CCCCCC;fill-opacity:0.3922;}
	.st74{fill:#FFFFFF;fill-opacity:0.898;}
	.st75{opacity:0.59;}
	.st76{fill:none;stroke:#FFFFFF;stroke-width:2;stroke-linecap:round;stroke-opacity:0.3922;}
	.st77{fill:#FFFFFF;fill-opacity:0.7843;}
	.st78{fill:#E0E0E0;fill-opacity:0.3922;}
	.st79{fill-opacity:0.1882;}
	.st80{fill:#E0E0E0;fill-opacity:0.7843;}
	.st81{fill:#FFFFFF;fill-opacity:8.235300e-02;}
	.st82{fill:#FFFFFF;fill-opacity:0.29;}
	.st83{fill:#F9F9F9;fill-opacity:0.73;}
	.st84{fill:#B3B3B3;fill-opacity:0.7294;}
	.st85{fill:#E0E0E0;fill-opacity:0.29;}
	.st86{fill:#FFFFFF;fill-opacity:0.1961;}
	.st87{fill:#B3B3B3;fill-opacity:0.7843;}
	.st88{fill:#E0E0E0;fill-opacity:0.1882;}
	.st89{fill:#808080;fill-opacity:0.1882;}
	.st90{fill:#808080;}
	.st91{fill:#808080;fill-opacity:0.18;}
	.st92{fill:#E0E0E0;fill-opacity:0.18;}
	.st93{fill:none;stroke:#FFFFFF;stroke-width:2;stroke-linecap:round;stroke-linejoin:round;stroke-opacity:0.39;}
	.st94{fill:#FFFFFF;fill-opacity:0.59;}
	.st95{fill:#B5B5B5;}
	.st96{fill:#A2D2FF;}
	.st97{fill:url(#SVGID_20_);}
	.st98{fill:none;}
	.st99{fill:#AD5FFF;}
	.st100{fill:#A4BEFF;}
	.st101{fill:#FF5824;}
	.st102{fill:none;stroke:#FFFFFF;stroke-width:2;stroke-linecap:round;}
	.st103{fill:#D6D6D6;}
	.st104{fill:#A5A5A5;}
	.st105{fill:#00E5B9;}
	.st106{fill:#8AABFF;}
	.st107{fill:#FF7373;}
	.st108{fill:#CD3838;fill-opacity:0.502;}
	.st109{fill:#3E64DC;fill-opacity:0.3922;}
	.st110{fill:#699CE8;fill-opacity:0.75;}
	.st111{fill:#E0E0E0;fill-opacity:0.1961;}
	.st112{fill:#EC418E;}
	.st113{fill:#5ABBEF;}
	.st114{fill:#E0E0E0;fill-opacity:0.3255;}
	.st115{fill:url(#SVGID_21_);}
	.st116{fill:url(#SVGID_22_);}
	.st117{fill:url(#SVGID_23_);}
	.st118{fill:#B7B7B7;}
	.st119{fill:url(#SVGID_24_);}
	.st120{fill:#FFFFFF;fill-opacity:0.6863;}
	.st121{fill-opacity:0.7529;}
	.st122{fill:#656565;fill-opacity:0.502;}
	.st123{fill:#E0E0E0;fill-opacity:0.502;}
	.st124{fill:#656565;}
	.st125{fill:#F7E93C;}
	.st126{fill:#B9EC41;}
	.st127{fill:#F68F45;}
	.st128{fill:#414042;}
	.st129{fill:#E0E0E0;stroke:#414042;}
	.st130{fill:#87DD87;}
	.st131{fill:#94B3FF;}
	.st132{fill:#41ECAD;}
	.st133{fill:#AC73F1;}
	.st134{fill:#DE66F0;}
	.st135{fill:#EBA2F6;}
	.st136{fill:#3E64DC;fill-opacity:0.9961;}
	.st137{fill:#CD3838;fill-opacity:0.9961;}
	.st138{fill:#FF0000;fill-opacity:0.3922;}
	.st139{fill:#0000FF;fill-opacity:0.3922;}
	.st140{fill:#00FF00;fill-opacity:0.3922;}
	.st141{fill:#FFFFFF;stroke:#FFFFFF;stroke-width:2;stroke-linejoin:round;}
	.st142{opacity:0.8627;fill:#FF0000;}
	.st143{opacity:0.8627;fill:#00FF00;}
	.st144{opacity:0.8627;fill:#0000FF;}
	.st145{fill:#F9F9F9;}
	.st146{fill:url(#SVGID_25_);}
	.st147{fill:url(#SVGID_26_);}
	.st148{fill:url(#SVGID_27_);}
	.st149{fill:url(#SVGID_28_);}
	.st150{opacity:0.2;fill:#3E64DC;}
	.st151{opacity:0.5;}
	.st152{fill:#92B1FF;}
	.st153{fill:#FC7F7F;fill-opacity:0.3922;}
</style>
<g>
	<circle class="st59" cx="7" cy="7.2" r="6.8"/>
	<path class="st26" d="M3,12.9c0,0,0.7-0.3,1.8-0.8S7,10.6,7.4,9.1c0,0-1.6,0.3-2.9-0.8S2.7,6.2,2.6,5.2C2.5,4.3,3,2.5,4.4,0.6
		l2-0.3c0,0-0.6,0.5-1.3,1.5s-1.2,2.4-1.2,3C3.8,5.5,3.7,5.9,4,6.6c0.3,0.7,0.9,1.2,1.6,1.5c0.7,0.3,2.1,0.2,2.7,0.1
		c0,0,0,1-0.2,1.6c-0.3,0.6-1,1.7-1.9,2.3S4,13.4,4,13.4L3,12.9z"/>
	<path class="st26" d="M4.8,13.7c0,0,1.2-0.6,2.2-1.5s1.3-1.9,1.5-2.6s0.2-1.2,0.1-2.2c0,0-1.3,0.7-2.5,0.2c-1.2-0.5-1.4-1.4-1.6-2
		c-0.1-0.6,0-1.9,0.8-3S7,0.7,8,0l2.6,1.1c0,0-1.1,0.2-2.6,1.2s-2.2,2-2.4,2.6C5.5,5.5,5.7,6,6.3,6.2c0.6,0.2,1.9,0.2,2.9-0.4
		c0,0,1.4-0.6,2.5-1.8c0,0,0.2,1.5-0.2,2.9c-0.4,1.4-0.9,3-2,4s-2.2,2.2-4.1,2.9L4.8,13.7z"/>
</g>
</svg>
